<svg width="20" height="20" viewBox="0 0 20 20" fill="none" xmlns="http://www.w3.org/2000/svg">
<path d="M9.99984 18.3332C14.6022 18.3332 18.3332 14.6022 18.3332 9.99984C18.3332 5.39746 14.6022 1.6665 9.99984 1.6665C5.39746 1.6665 1.6665 5.39746 1.6665 9.99984C1.6665 14.6022 5.39746 18.3332 9.99984 18.3332Z" stroke="#2869FE" stroke-width="1.5" stroke-linecap="round" stroke-linejoin="round"/>
<path d="M6.66667 2.5H7.5C5.875 7.36667 5.875 12.6333 7.5 17.5H6.66667" stroke="#2869FE" stroke-width="1.5" stroke-linecap="round" stroke-linejoin="round"/>
<path d="M12.5 2.5C14.125 7.36667 14.125 12.6333 12.5 17.5" stroke="#2869FE" stroke-width="1.5" stroke-linecap="round" stroke-linejoin="round"/>
<path d="M2.5 13.3333V12.5C7.36667 14.125 12.6333 14.125 17.5 12.5V13.3333" stroke="#2869FE" stroke-width="1.5" stroke-linecap="round" stroke-linejoin="round"/>
<path d="M2.5 7.5C7.36667 5.875 12.6333 5.875 17.5 7.5" stroke="#2869FE" stroke-width="1.5" stroke-linecap="round" stroke-linejoin="round"/>
</svg>
